<?xml version="1.0" encoding="UTF-8"?>
<svg width="48px" height="48px" viewBox="0 0 48 48" version="1.1" xmlns="http://www.w3.org/2000/svg" xmlns:xlink="http://www.w3.org/1999/xlink">
    <!-- Generator: Sketch 42 (36781) - http://www.bohemiancoding.com/sketch -->
    <title>Custom Preset Copy</title>
    <desc>Created with Sketch.</desc>
    <defs></defs>
    <g id="Page-1" stroke="none" stroke-width="1" fill="none" fill-rule="evenodd">
        <g id="Custom-Preset-Copy" fill="#FFFFFF">
            <path d="M30,19 L29,19 L29,17 L19,17 L19,19 L18,19 L18,17 L12,17 L12,41 L36,41 L36,17 L30,17 L30,19 Z M18,16 L18,12.0006595 C18,8.68658675 20.6841152,6 23.9956512,6 L24,6 C27.3137085,6 30,8.67653633 30,12.0006595 L30,16 L37,16 L37,42 L11,42 L11,16 L18,16 Z M19,11.7493251 L19,13.164771 L19,13.5513664 C19,16.1864931 19,17.244369 19,15.9320297 L29,15.9320297 C29,16.1863248 29,16.182205 29,13.5596199 L29,11.7437161 C29,9.12301789 26.8728744,6.99510569 24.2489319,6.99510569 L23.7510681,6.99510569 C21.1207428,6.99510569 19,9.12364224 19,11.7493251 Z" id="Combined-Shape"></path>
        </g>
    </g>
</svg>