<svg xmlns="http://www.w3.org/2000/svg" width="280" height="80">
  <g fill="none" fill-rule="evenodd">
    <path fill="#F3F4F3" d="M42.5928398 16.7451487V41.684802H35.680993l-9.4770682-11.3297282V41.684802h-8.1944576V16.7451487h6.9118468l9.4770683 11.3297283V16.7451487h8.1944575zm4.0616007 0h8.4082259V41.684802h-8.4082259V16.7451487zm37.0531992 0V41.684802h-6.9118468l-9.4770683-11.3297282V41.684802h-8.1944575V16.7451487h6.9118468l9.4770683 11.3297283V16.7451487h8.1944575zm5.0770008 24.5655585c-1.5795192-.6294324-2.879931-1.5498152-3.9012743-2.7611759l4.5247657-5.3442114c.6650607.831326 1.3182356 1.4488731 1.9595441 1.85266.6413086.4037869 1.3063594.6056773 1.9951723.6056773.8788303 0 1.549819-.26127 2.0129863-.7838177.4631673-.5225477.6947475-1.2944817.6947475-2.315825v-9.4770682H87.5911v-6.3417976h16.780824v15.3200728c0 3.3965602-.872879 5.9439422-2.618664 7.6422223-1.745784 1.6982801-4.3050421 2.5474075-7.6778502 2.5474075-1.9476779 0-3.71125-.3147116-5.2907693-.9441441zm34.8952865-3.9725304h-9.477068l-1.67452 4.3466252h-8.550738l10.902191-24.9396533h8.265714l10.902191 24.9396533h-8.69325l-1.67452-4.3466252zm-2.315825-6.056773l-2.422709-6.2705414-2.422709 6.2705414h4.845418zm43.753692-13.3961566c1.710156.7600694 3.028382 1.8526528 3.954716 3.277783.926335 1.4251302 1.389495 3.0877571 1.389495 4.9879306 0 1.9001736-.46316 3.5628005-1.389495 4.9879307-.926334 1.4251302-2.24456 2.5177136-3.954716 3.277783-1.710157.7600694-3.717185 1.1400984-6.021145 1.1400984h-3.598436v6.1280291h-8.408226V16.7451487h12.006662c2.30396 0 4.310988.380029 6.021145 1.1400985zm-3.990345 10.4212122c.570052-.5106716.855074-1.2291639.855074-2.1554986 0-.9263346-.285022-1.6448269-.855074-2.1554986-.570052-.5106716-1.425117-.7660036-2.565221-.7660036h-3.064015v5.8430045h3.064015c1.140104 0 1.995169-.255332 2.565221-.7660037zm12.077918-11.5613107h8.408226V41.684802h-8.408226V16.7451487zm33.917928 18.4197154v6.5199379h-22.338803v-5.166071l11.400984-13.2536443h-11.400984v-6.519938h22.338803v5.1660711l-11.400984 13.2536443h11.400984zm24.476489 0v6.5199379H209.26098v-5.166071l11.400984-13.2536443H209.26098v-6.519938h22.338804v5.1660711l-11.400985 13.2536443h11.400985zm20.022979 2.1733127h-9.477069l-1.674519 4.3466252h-8.550739l10.902192-24.9396533h8.265713l10.902192 24.9396533h-8.693251l-1.674519-4.3466252zm-2.315825-6.056773l-2.42271-6.2705414-2.422709 6.2705414h4.845419z"/>
    <path fill="#F15025" d="M37.9337221 44.2548513H242.066278v19H37.9337221v-19zm36.7904641 12.152h-1.372v-7.952h-7.532l-.112 3.066c-.0560003 1.5586744-.2053321 2.7579958-.448 3.598-.2426679.8400042-.6579971 1.2693332-1.246 1.288h-.392l-.014 3.878h2.1v-2.03h6.916v2.03h2.1v-3.878zm-7.308-1.743c-.1493341.7886706-.3779985 1.3696648-.686 1.743h4.382v-6.104h-3.36l-.042 1.428c-.0466669 1.1666725-.1446659 2.1443294-.294 2.933zm10.759 3.101c-.8166708-.4386689-1.4559977-1.0429962-1.918-1.813-.4620023-.7700039-.693-1.6356619-.693-2.597 0-.9613382.2309977-1.8269962.693-2.597.4620023-.7700039 1.1013292-1.3743312 1.918-1.813.8166707-.4386689 1.7336616-.658 2.751-.658 1.0173384 0 1.9319959.2193311 2.744.658.812004.4386688 1.451331 1.0429961 1.918 1.813.466669.7700038.7 1.6356618.7 2.597 0 .9613381-.233331 1.8269961-.7 2.597-.466669.7700038-1.105996 1.3743311-1.918 1.813-.8120041.4386688-1.7266616.658-2.744.658-1.0173384 0-1.9343293-.2193312-2.751-.658zm4.319-1.673c.466669-.2660014.8329986-.6369977 1.099-1.113.2660013-.4760024.399-1.0173303.399-1.624 0-.6066697-.1329987-1.1479977-.399-1.624-.2660014-.4760024-.632331-.8469987-1.099-1.113-.466669-.2660014-.9893305-.399-1.568-.399-.5786696 0-1.101331.1329986-1.568.399-.466669.2660013-.8329987.6369976-1.099 1.113-.2660014.4760023-.399 1.0173303-.399 1.624 0 .6066697.1329986 1.1479976.399 1.624.2660013.4760023.632331.8469986 1.099 1.113.466669.2660013.9893304.399 1.568.399.5786695 0 1.101331-.1329987 1.568-.399zm7.469 1.68c-.8073374-.4340022-1.4419977-1.0359962-1.904-1.806-.4620023-.7700039-.693-1.6403285-.693-2.611 0-.9706716.2309977-1.8409962.693-2.611.4620023-.7700039 1.0966626-1.3719979 1.904-1.806.8073373-.4340022 1.7149949-.651 2.723-.651.8493376 0 1.6169965.1493318 2.303.448.6860034.2986681 1.262331.7279972 1.729 1.288l-1.456 1.344c-.66267-.7653372-1.4839951-1.148-2.464-1.148-.6066697 0-1.1479976.1329986-1.624.399-.4760024.2660013-.8469987.6369976-1.113 1.113-.2660014.4760023-.399 1.0173303-.399 1.624 0 .6066697.1329986 1.1479976.399 1.624.2660013.4760023.6369976.8469986 1.113 1.113.4760024.2660013 1.0173303.399 1.624.399.9800049 0 1.80133-.3873295 2.464-1.162l1.456 1.344c-.466669.5693361-1.0453299 1.0033318-1.736 1.302-.6906701.2986681-1.4606624.448-2.31.448-.9986717 0-1.9016627-.2169979-2.709-.651zm15.7289998-7.469h-3.136v7.952h-2.24v-7.952h-3.1219998v-1.848h8.4979998v1.848zm8.064 5.852h-4.55l-.868 2.1h-2.324l4.368-9.8h2.24l4.382 9.8h-2.38l-.868-2.1zm-.714-1.722l-1.554-3.752-1.554 3.752h3.108zm13.426-.42c.317335.4013353.476.895997.476 1.484 0 .8680043-.328997 1.5446642-.987 2.03-.658003.4853357-1.598327.728-2.821.728h-4.83v-9.8h4.564c1.138673 0 2.02533.2193311 2.66.658.63467.4386688.952 1.0639959.952 1.876 0 .4853357-.121332.9123315-.364 1.281-.242668.3686685-.583331.6603322-1.022.875.597336.1773342 1.054665.4666646 1.372.868zm-5.908-1.498h2.114c.494669 0 .867999-.1003324 1.12-.301.252001-.2006677.378-.4969981.378-.889 0-.3826686-.128332-.6766657-.385-.882-.256668-.2053344-.627664-.308-1.113-.308h-2.114v2.38zm4.088 2.8c0-.8120041-.531995-1.218-1.596-1.218h-2.492v2.478h2.492c1.064005 0 1.596-.4199958 1.596-1.26zm7.882-1.008h-1.568v3.948h-2.254v-9.8h2.254v3.962h1.624l2.576-3.962h2.394l-3.206 4.732 3.304 5.068h-2.576l-2.548-3.948zm13.132 1.848h-4.55l-.868 2.1h-2.324l4.368-9.8h2.24l4.382 9.8h-2.38l-.868-2.1zm-.714-1.722l-1.554-3.752-1.554 3.752h3.108zm18.158-5.978v9.8h-2.254v-7.952h-4.424v7.952h-2.254v-9.8h8.932zm2.436 0h2.254v6.384l4.676-6.384h2.128v9.8h-2.24v-6.37l-4.676 6.37h-2.142v-9.8zm21.77 7.952v3.92h-2.086v-2.072h-8.19v-9.8h2.254v7.952h4.368v-7.952h2.254v7.952h1.4zm11.774 0v3.92h-2.086v-2.072h-8.19v-9.8h2.254v7.952h4.368v-7.952h2.254v7.952h1.4zm8.995-3.934c.639337.5320026.959 1.3206614.959 2.366 0 1.1106722-.35233 1.9576637-1.057 2.541-.70467.5833362-1.696327.875-2.975.875h-4.424v-9.8h2.254v3.22h2.492c1.194673 0 2.111664.2659973 2.751.798zm-1.82 3.668c.331335-.2893348.497-.7093306.497-1.26 0-1.0173385-.625327-1.526-1.876-1.526h-2.044v3.22h2.044c.588003 0 1.047665-.1446653 1.379-.434zm4.025-7.686h2.254v9.8h-2.254v-9.8z"/>
  </g>
</svg>
