<svg xmlns="http://www.w3.org/2000/svg" width="300" height="72">
  <g fill="none" fill-rule="evenodd">
    <path fill="#F3F4F3" class="logo-primary" fill-rule="nonzero" d="M52.5928398 12.7451487V37.684802H45.680993l-9.4770682-11.3297282V37.684802h-8.1944576V12.7451487h6.9118468l9.4770683 11.3297283V12.7451487h8.1944575zm4.0616007 0h8.4082259V37.684802h-8.4082259V12.7451487zm37.0531992 0V37.684802h-6.9118468l-9.4770683-11.3297282V37.684802h-8.1944575V12.7451487h6.9118468l9.4770683 11.3297283V12.7451487h8.1944575zm5.0770008 24.5655585c-1.5795192-.6294324-2.879931-1.5498152-3.9012743-2.7611759l4.5247657-5.3442114c.6650611.831326 1.3182351 1.4488731 1.9595441 1.85266.641309.4037869 1.306359.6056773 1.995172.6056773.878831 0 1.549819-.26127 2.012987-.7838177.463167-.5225477.694747-1.2944817.694747-2.315825v-9.4770682H97.5911v-6.3417976h16.780824v15.3200728c0 3.3965602-.872879 5.9439422-2.618664 7.6422223-1.745784 1.6982801-4.305042 2.5474075-7.67785 2.5474075-1.947678 0-3.71125-.3147116-5.2907695-.9441441zm34.8952865-3.9725304h-9.477068l-1.67452 4.3466252h-8.550738l10.902191-24.9396533h8.265714l10.902191 24.9396533h-8.69325l-1.67452-4.3466252zm-2.315825-6.056773l-2.422709-6.2705414-2.422709 6.2705414h4.845418zm43.753692-13.3961566c1.710156.7600694 3.028382 1.8526528 3.954716 3.277783.926335 1.4251302 1.389495 3.0877571 1.389495 4.9879306 0 1.9001736-.46316 3.5628005-1.389495 4.9879307-.926334 1.4251302-2.24456 2.5177136-3.954716 3.277783-1.710157.7600694-3.717185 1.1400984-6.021145 1.1400984h-3.598436v6.1280291h-8.408226V12.7451487h12.006662c2.30396 0 4.310988.380029 6.021145 1.1400985zm-3.990345 10.4212122c.570052-.5106716.855074-1.2291639.855074-2.1554986 0-.9263346-.285022-1.6448269-.855074-2.1554986-.570052-.5106716-1.425117-.7660036-2.565221-.7660036h-3.064015v5.8430045h3.064015c1.140104 0 1.995169-.255332 2.565221-.7660037zm12.077918-11.5613107h8.408226V37.684802h-8.408226V12.7451487zm33.917928 18.4197154v6.5199379h-22.338803v-5.166071l11.400984-13.2536443h-11.400984v-6.519938h22.338803v5.1660711l-11.400984 13.2536443h11.400984zm24.476489 0v6.5199379H219.26098v-5.166071l11.400984-13.2536443H219.26098v-6.519938h22.338804v5.1660711l-11.400985 13.2536443h11.400985zm20.022979 2.1733127h-9.477069l-1.674519 4.3466252h-8.550739l10.902192-24.9396533h8.265713l10.902192 24.9396533h-8.693251l-1.674519-4.3466252zm-2.315825-6.056773l-2.42271-6.2705414-2.422709 6.2705414h4.845419z"/>
    <path fill="#F15025" class="logo-secondary" d="M47.9337221 40.2548513H252.066278v19H47.9337221v-19zm36.7904641 12.152h-1.372v-7.952h-7.532l-.112 3.066c-.0560003 1.5586744-.2053321 2.7579958-.448 3.598-.2426679.8400042-.6579971 1.2693332-1.246 1.288h-.392l-.014 3.878h2.1v-2.03h6.916v2.03h2.1v-3.878zm-7.308-1.743c.1493341-.7886706.2473331-1.7663275.294-2.933l.042-1.428h3.36v6.104h-4.382c.3080015-.3733352.5366659-.9543294.686-1.743zm10.759 3.101c.8166707.4386688 1.7336616.658 2.751.658 1.0173384 0 1.9319959-.2193312 2.744-.658.812004-.4386689 1.451331-1.0429962 1.918-1.813.466669-.7700039.7-1.6356619.7-2.597 0-.9613382-.233331-1.8269962-.7-2.597-.466669-.7700039-1.105996-1.3743312-1.918-1.813-.8120041-.4386689-1.7266616-.658-2.744-.658-1.0173384 0-1.9343293.2193311-2.751.658-.8166708.4386688-1.4559977 1.0429961-1.918 1.813-.4620023.7700038-.693 1.6356618-.693 2.597 0 .9613381.2309977 1.8269961.693 2.597.4620023.7700038 1.1013292 1.3743311 1.918 1.813zm4.319-1.673c-.466669.2660013-.9893305.399-1.568.399-.5786696 0-1.101331-.1329987-1.568-.399-.466669-.2660014-.8329987-.6369977-1.099-1.113-.2660014-.4760024-.399-1.0173303-.399-1.624 0-.6066697.1329986-1.1479977.399-1.624.2660013-.4760024.632331-.8469987 1.099-1.113.466669-.2660014.9893304-.399 1.568-.399.5786695 0 1.101331.1329986 1.568.399.466669.2660013.8329986.6369976 1.099 1.113.2660013.4760023.399 1.0173303.399 1.624 0 .6066697-.1329987 1.1479976-.399 1.624-.2660014.4760023-.632331.8469986-1.099 1.113zm7.469 1.68c.8073368.4340021 1.7103278.651 2.7089998.651.849338 0 1.61933-.1493319 2.31-.448.69067-.2986682 1.269331-.7326639 1.736-1.302l-1.456-1.344c-.66267.7746705-1.483995 1.162-2.464 1.162-.60667 0-1.147997-.1329987-1.624-.399-.476002-.2660014-.846999-.6369977-1.113-1.113-.2660012-.4760024-.3989998-1.0173303-.3989998-1.624 0-.6066697.1329986-1.1479977.3989998-1.624.266001-.4760024.636998-.8469987 1.113-1.113.476003-.2660014 1.01733-.399 1.624-.399.980005 0 1.80133.3826628 2.464 1.148l1.456-1.344c-.466669-.5600028-1.042996-.9893319-1.729-1.288-.686003-.2986682-1.453662-.448-2.303-.448-1.008005 0-1.915663.2169978-2.7229998.651-.8073374.4340021-1.4419977 1.0359961-1.904 1.806-.4620023.7700038-.693 1.6403284-.693 2.611 0 .9706715.2309977 1.8409961.693 2.611.4620023.7700038 1.0966626 1.3719978 1.904 1.806zm15.7289998-7.469v-1.848h-8.498v1.848h3.122v7.952h2.24v-7.952h3.136zm8.064 5.852l.868 2.1h2.38l-4.382-9.8h-2.24l-4.368 9.8h2.324l.868-2.1h4.55zm-.714-1.722h-3.108l1.554-3.752 1.554 3.752zm13.426-.42c-.317335-.4013354-.774664-.6906658-1.372-.868.438669-.2146678.779332-.5063315 1.022-.875.242668-.3686685.364-.7956643.364-1.281 0-.8120041-.31733-1.4373312-.952-1.876-.63467-.4386689-1.521327-.658-2.66-.658h-4.564v9.8h4.83c1.222673 0 2.162997-.2426643 2.821-.728.658003-.4853358.987-1.1619957.987-2.03 0-.588003-.158665-1.0826647-.476-1.484zm-5.908-1.498v-2.38h2.114c.485336 0 .856332.1026656 1.113.308.256668.2053343.385.4993314.385.882 0 .3920019-.125999.6883323-.378.889-.252001.2006676-.625331.301-1.12.301h-2.114zm4.088 2.8c0 .8400042-.531995 1.26-1.596 1.26h-2.492v-2.478h2.492c1.064005 0 1.596.4059959 1.596 1.218zm7.882-1.008l2.548 3.948h2.576l-3.304-5.068 3.206-4.732h-2.394l-2.576 3.962h-1.624v-3.962h-2.254v9.8h2.254v-3.948h1.568zm13.132 1.848l.868 2.1h2.38l-4.382-9.8h-2.24l-4.368 9.8h2.324l.868-2.1h4.55zm-.714-1.722h-3.108l1.554-3.752 1.554 3.752zm18.158-5.978h-8.932v9.8h2.254v-7.952h4.424v7.952h2.254v-9.8zm2.436 0v9.8h2.142l4.676-6.37v6.37h2.24v-9.8h-2.128l-4.676 6.384v-6.384h-2.254zm21.77 7.952h-1.4v-7.952h-2.254v7.952h-4.368v-7.952h-2.254v9.8h8.19v2.072h2.086v-3.92zm11.774 0h-1.4v-7.952h-2.254v7.952h-4.368v-7.952h-2.254v9.8h8.19v2.072h2.086v-3.92zm8.995-3.934c-.639336-.5320027-1.556327-.798-2.751-.798h-2.492v-3.22h-2.254v9.8h4.424c1.278673 0 2.27033-.2916638 2.975-.875.70467-.5833363 1.057-1.4303278 1.057-2.541 0-1.0453386-.319663-1.8339974-.959-2.366zm-1.82 3.668c-.331335.2893347-.790997.434-1.379.434h-2.044v-3.22h2.044c1.250673 0 1.876.5086615 1.876 1.526 0 .5506694-.165665.9706652-.497 1.26zm4.025-7.686v9.8h2.254v-9.8h-2.254z"/>
  </g>
</svg>
